<svg width="24" height="24" viewBox="0 0 24 24" fill="none" xmlns="http://www.w3.org/2000/svg">
  <path d="M8 4H16V6C16 8.20914 14.2091 10 12 10C9.79086 10 8 8.20914 8 6V4Z" stroke="#2B6CB0" stroke-width="1.5" stroke-linecap="round" stroke-linejoin="round"/>
  <path d="M16 5H18C18.5523 5 19 5.44772 19 6C19 7.65685 17.6569 9 16 9" stroke="#2B6CB0" stroke-width="1.5" stroke-linecap="round"/>
  <path d="M8 5H6C5.44772 5 5 5.44772 5 6C5 7.65685 6.34315 9 8 9" stroke="#2B6CB0" stroke-width="1.5" stroke-linecap="round"/>
  <path d="M12 10V14" stroke="#2B6CB0" stroke-width="1.5" stroke-linecap="round"/>
  <path d="M9 18H15" stroke="#2B6CB0" stroke-width="1.5" stroke-linecap="round"/>
  <path d="M10 14H14V18H10V14Z" stroke="#2B6CB0" stroke-width="1.5" stroke-linejoin="round"/>
</svg>
